<svg width="83" height="76" viewBox="0 0 83 76" fill="none" xmlns="http://www.w3.org/2000/svg">
<path d="M40.9745 46.0138V2.84296C40.9745 1.91706 40.2239 1.16648 39.298 1.16648H39.043C38.7209 1.16648 38.4597 0.905351 38.4597 0.583238C38.4597 0.261125 38.7209 0 39.043 0L55.3735 1.30554e-05C55.6956 1.3304e-05 55.9567 0.261135 55.9567 0.583244C55.9567 0.905354 55.6956 1.16648 55.3735 1.16648H55.0287C53.9927 1.16648 53.1576 2.03813 53.1739 3.07408C53.7307 38.4778 54.2002 42.7607 51.8085 47.4221C48.7661 53.3519 38.2288 58.244 29.8435 51.7212C21.4582 45.1984 27.1721 35.1919 33.257 37.6379C39.3419 40.084 37.6352 45.7173 35.409 47.9409C33.1828 50.1646 33.6281 53.5742 37.3384 53.7225C40.3066 53.8411 40.9992 48.6328 40.9745 46.0138Z" fill="#3A3B3D"/>
<path d="M5.81898 70.376C6.33889 70.596 6.74882 70.9309 7.04877 71.3808C7.34871 71.8307 7.49869 72.3356 7.49869 72.8955C7.49869 73.7054 7.21374 74.3953 6.64384 74.9652C6.07394 75.5351 5.38406 75.82 4.5742 75.82H0V65.3219H4.22926C4.99913 65.3219 5.66401 65.6018 6.22391 66.1617C6.77381 66.7116 7.04877 67.3715 7.04877 68.1414C7.04877 69.1212 6.63884 69.8661 5.81898 70.376ZM4.22926 66.3117H1.04982V69.9711H4.22926C4.70918 69.9711 5.1241 69.7961 5.47404 69.4462C5.82398 69.0762 5.99895 68.6413 5.99895 68.1414C5.99895 67.6515 5.82398 67.2215 5.47404 66.8516C5.1241 66.4917 4.70918 66.3117 4.22926 66.3117ZM1.04982 74.8302H4.5742C5.09411 74.8302 5.53403 74.6452 5.89397 74.2753C6.2639 73.9054 6.44887 73.4455 6.44887 72.8955C6.44887 72.3556 6.2639 71.9007 5.89397 71.5308C5.53403 71.1509 5.09411 70.9609 4.5742 70.9609H1.04982V74.8302Z" fill="#3A3B3D"/>
<path d="M13.0495 65.3219V74.8302H17.8486V75.82H11.9997V65.3219H13.0495Z" fill="#3A3B3D"/>
<path d="M29.988 74.4253C28.9381 75.4751 27.6534 76 26.1336 76C24.6139 76 23.3291 75.4751 22.2793 74.4253C21.2295 73.3555 20.7046 72.0707 20.7046 70.571C20.7046 69.0612 21.2295 67.7814 22.2793 66.7316C23.3291 65.6718 24.6139 65.1419 26.1336 65.1419C27.6534 65.1419 28.9381 65.6718 29.988 66.7316C31.0378 67.7814 31.5627 69.0612 31.5627 70.571C31.5627 72.0707 31.0378 73.3555 29.988 74.4253ZM21.7544 70.571C21.7544 71.8107 22.1743 72.8556 23.0142 73.7054C23.854 74.5553 24.8938 74.9802 26.1336 74.9802C27.3734 74.9802 28.4132 74.5553 29.2531 73.7054C30.0929 72.8556 30.5129 71.8107 30.5129 70.571C30.5129 69.3412 30.0929 68.3014 29.2531 67.4515C28.4132 66.5917 27.3734 66.1617 26.1336 66.1617C24.8938 66.1617 23.854 66.5917 23.0142 67.4515C22.1743 68.3014 21.7544 69.3412 21.7544 70.571Z" fill="#3A3B3D"/>
<path d="M38.9762 76C38.0164 76 37.1915 75.775 36.5016 75.3251C35.8217 74.8652 35.3468 74.2353 35.0769 73.4355L35.9767 72.9105C36.1667 73.5704 36.5166 74.0803 37.0265 74.4403C37.5464 74.8002 38.2013 74.9802 38.9912 74.9802C39.761 74.9802 40.3659 74.8102 40.8059 74.4703C41.2458 74.1303 41.4657 73.6704 41.4657 73.0905C41.4657 72.5406 41.2658 72.1257 40.8659 71.8457C40.4759 71.5658 39.816 71.2758 38.8862 70.9759C37.7764 70.6059 37.0565 70.316 36.7266 70.106C35.9267 69.6261 35.5268 68.9312 35.5268 68.0214C35.5268 67.1316 35.8367 66.4317 36.4566 65.9218C37.0665 65.4019 37.8314 65.1419 38.7512 65.1419C39.5411 65.1419 40.241 65.3519 40.8509 65.7718C41.4608 66.1817 41.9157 66.7266 42.2156 67.4065L41.3308 67.9014C40.8509 66.7416 39.991 66.1617 38.7512 66.1617C38.0913 66.1617 37.5614 66.3267 37.1615 66.6566C36.7716 66.9766 36.5766 67.4165 36.5766 67.9764C36.5766 68.5063 36.7566 68.8962 37.1165 69.1462C37.4864 69.4062 38.0813 69.6711 38.9012 69.9411L39.7111 70.226C39.881 70.276 40.121 70.366 40.4309 70.496C40.7709 70.6259 41.0058 70.7359 41.1358 70.8259C41.6657 71.1459 42.0007 71.4408 42.1406 71.7108C42.3906 72.1107 42.5156 72.5606 42.5156 73.0605C42.5156 73.9504 42.1906 74.6652 41.5407 75.2051C40.8909 75.7351 40.036 76 38.9762 76Z" fill="#3A3B3D"/>
<path d="M49.936 76C48.9762 76 48.1513 75.775 47.4614 75.3251C46.7815 74.8652 46.3066 74.2353 46.0367 73.4355L46.9365 72.9105C47.1265 73.5704 47.4764 74.0803 47.9863 74.4403C48.5062 74.8002 49.1611 74.9802 49.951 74.9802C50.7208 74.9802 51.3257 74.8102 51.7657 74.4703C52.2056 74.1303 52.4255 73.6704 52.4255 73.0905C52.4255 72.5406 52.2256 72.1257 51.8257 71.8457C51.4357 71.5658 50.7758 71.2758 49.846 70.9759C48.7362 70.6059 48.0163 70.316 47.6864 70.106C46.8865 69.6261 46.4866 68.9312 46.4866 68.0214C46.4866 67.1316 46.7965 66.4317 47.4164 65.9218C48.0263 65.4019 48.7912 65.1419 49.711 65.1419C50.5009 65.1419 51.2008 65.3519 51.8107 65.7718C52.4206 66.1817 52.8755 66.7266 53.1754 67.4065L52.2906 67.9014C51.8107 66.7416 50.9508 66.1617 49.711 66.1617C49.0511 66.1617 48.5212 66.3267 48.1213 66.6566C47.7314 66.9766 47.5364 67.4165 47.5364 67.9764C47.5364 68.5063 47.7164 68.8962 48.0763 69.1462C48.4462 69.4062 49.0411 69.6711 49.861 69.9411L50.6709 70.226C50.8408 70.276 51.0808 70.366 51.3907 70.496C51.7307 70.6259 51.9656 70.7359 52.0956 70.8259C52.6255 71.1459 52.9605 71.4408 53.1004 71.7108C53.3504 72.1107 53.4754 72.5606 53.4754 73.0605C53.4754 73.9504 53.1504 74.6652 52.5005 75.2051C51.8507 75.7351 50.9958 76 49.936 76Z" fill="#3A3B3D"/>
<path d="M66.5874 74.4253C65.5376 75.4751 64.2528 76 62.7331 76C61.2133 76 59.9286 75.4751 58.8787 74.4253C57.8289 73.3555 57.304 72.0707 57.304 70.571C57.304 69.0612 57.8289 67.7814 58.8787 66.7316C59.9286 65.6718 61.2133 65.1419 62.7331 65.1419C64.2528 65.1419 65.5376 65.6718 66.5874 66.7316C67.6372 67.7814 68.1621 69.0612 68.1621 70.571C68.1621 72.0707 67.6372 73.3555 66.5874 74.4253ZM58.3538 70.571C58.3538 71.8107 58.7738 72.8556 59.6136 73.7054C60.4535 74.5553 61.4933 74.9802 62.7331 74.9802C63.9729 74.9802 65.0127 74.5553 65.8525 73.7054C66.6924 72.8556 67.1123 71.8107 67.1123 70.571C67.1123 69.3412 66.6924 68.3014 65.8525 67.4515C65.0127 66.5917 63.9729 66.1617 62.7331 66.1617C61.4933 66.1617 60.4535 66.5917 59.6136 67.4515C58.7738 68.3014 58.3538 69.3412 58.3538 70.571Z" fill="#3A3B3D"/>
<path d="M80.9506 65.3219H82.2553V75.82H81.2055V66.9116L77.5312 73.0605H77.3812L73.7068 66.9116V75.82H72.657V65.3219H73.9618L77.4562 71.1709L80.9506 65.3219Z" fill="#3A3B3D"/>
</svg>
