<svg width="20" height="20" viewBox="0 0 20 20" fill="none" xmlns="http://www.w3.org/2000/svg">
<path d="M1.01177 7.97203C3.3393 13.0444 7.48088 17.0772 12.63 19.2634L13.4553 19.6314C15.3437 20.4732 17.5636 19.8336 18.7154 18.1159L19.794 16.5072C20.1447 15.9842 20.0379 15.2798 19.548 14.8844L15.89 11.9316C15.3527 11.4978 14.5626 11.5989 14.1516 12.1538L13.02 13.6817C10.1163 12.2485 7.75881 9.88964 6.32646 6.98421L7.85343 5.85194C8.40806 5.44067 8.50902 4.65014 8.07557 4.11253L5.12441 0.452268C4.72926 -0.0378193 4.02543 -0.144721 3.50274 0.205962L1.88396 1.29203C0.156472 2.45102 -0.479193 4.69054 0.381587 6.58505L1.01082 7.96997L1.01177 7.97203Z" fill="#3A3B3D"/>
</svg>
